<?xml version="1.0" encoding="utf-8"?>
<!-- Generator: Adobe Illustrator 19.2.1, SVG Export Plug-In . SVG Version: 6.00 Build 0)  -->
<svg version="1.1" id="layer" xmlns="http://www.w3.org/2000/svg" xmlns:xlink="http://www.w3.org/1999/xlink" x="0px" y="0px"
	 viewBox="0 0 652 652" style="enable-background:new 0 0 652 652;" xml:space="preserve">
<style type="text/css">
	.st0{fill:#F26522;}
	.st1{fill:#E51B24;}
	.st2{fill:#231F20;}
	.st3{fill:#F99F1C;}
</style>
<g>
	<path d="M152.2,480.6v-27.2c0-10.2-6.5-17.1-17-17.2c-5.5-0.1-11.2,1.6-15.2,7.7c-3-4.8-7.7-7.7-14.3-7.7c-4.6,0-9.2,1.4-12.7,6.4
		v-5.3h-9.4v43.3h9.5v-24c0-7.5,4.2-11.5,10.6-11.5c6.2,0,9.4,4.1,9.4,11.4v24.1h9.5v-24c0-7.5,4.4-11.5,10.6-11.5
		c6.4,0,9.5,4.1,9.5,11.4v24.1H152.2z M292.9,437.3h-15.4v-13.1H268v13.1h-8.8v8.6h8.8v19.7c0,10,3.9,16,15,16
		c4.1,0,8.8-1.3,11.8-3.4l-2.7-8.1c-2.8,1.6-5.9,2.4-8.3,2.4c-4.7,0-6.3-2.9-6.3-7.2v-19.6h15.4V437.3z M373.3,436.2
		c-5.4,0-9,2.5-11.4,6.3v-5.2h-9.3v43.3h9.4v-24.3c0-7.2,3.1-11.1,9.2-11.1c1.9,0,3.9,0.3,5.9,1.1l2.9-8.9
		C377.9,436.6,375.2,436.2,373.3,436.2 M251.8,440.8c-4.5-3-10.8-4.5-17.7-4.5c-11,0-18,5.3-18,13.9c0,7.1,5.2,11.4,14.9,12.8
		l4.4,0.6c5.2,0.7,7.6,2.1,7.6,4.5c0,3.4-3.4,5.3-9.9,5.3c-6.5,0-11.2-2.1-14.4-4.5l-4.4,7.3c5.2,3.8,11.7,5.6,18.7,5.6
		c12.5,0,19.7-5.9,19.7-14.1c0-7.6-5.7-11.6-15.1-12.9l-4.5-0.6c-4.1-0.5-7.3-1.3-7.3-4.2c0-3.2,3.1-5.1,8.2-5.1
		c5.5,0,10.9,2.1,13.5,3.7L251.8,440.8z M504.1,436.2c-5.4,0-9,2.5-11.4,6.3v-5.2h-9.3v43.3h9.4v-24.3c0-7.2,3.1-11.1,9.2-11.1
		c1.9,0,3.9,0.3,5.9,1.1l2.9-8.9C508.7,436.6,506,436.2,504.1,436.2 M124,536.7h-14.8v34.7h-9.5v-34.7H91v-8.6h8.7v-7.3
		c0-8.7,4.4-15.6,14.5-15.6c5.1,0,8.9,1.3,12.1,3.3l-3.4,7.9c-2.2-1.2-5.2-2.3-8.1-2.3c-3.7,0-5.7,2.4-5.7,6.7v7.3H124V536.7z
		 M173.8,549.8c0-13-9.9-22.8-23.3-22.8c-13.4,0-23.3,9.8-23.3,22.8c0,13,9.9,22.8,23.3,22.8C163.9,572.6,173.8,562.8,173.8,549.8
		 M137,549.8c0-8.2,5.8-13.9,13.5-13.9c7.7,0,13.6,5.7,13.6,13.9c0,8.2-5.9,13.9-13.6,13.9C142.8,563.7,137,558,137,549.8
		 M221.6,528.2h-9.5v24.1c0,8.4-4.7,11.4-10.6,11.4c-5.9,0-10.6-3.1-10.6-11.4v-24.1h-9.5v24.9c0,13.8,9.9,19.5,20.1,19.5
		c10.1,0,20-5.7,20-19.5V528.2z M273.5,544.2c0-10.1-7.3-17.2-17.6-17.2c-4.4,0-9.8,1.3-13.3,6.4v-5.3h-9.4v43.3h9.5v-24
		c0-7.4,5.1-11.4,11.2-11.4c6.3,0,10.1,4.1,10.1,11.4v24.1h9.5V544.2 M380.1,528.2h-9.4v5.2c-3-3.9-7.5-6.4-13.6-6.4
		c-12.1,0-21.6,9.5-21.6,22.8c0,13.2,9.5,22.8,21.6,22.8c6.1,0,10.6-2.5,13.6-6.3v5.2h9.4V528.2z M345.1,549.8
		c0-7.6,4.9-13.9,13.1-13.9c7.8,0,13,6,13,13.9c0,7.9-5.2,13.9-13,13.9C350.1,563.7,345.1,557.4,345.1,549.8 M497.9,549.8
		c0-13-9.9-22.8-23.3-22.8c-13.4,0-23.3,9.8-23.3,22.8c0,13,9.9,22.8,23.3,22.8C487.9,572.6,497.9,562.8,497.9,549.8 M461,549.8
		c0-8.2,5.8-13.9,13.6-13.9c7.7,0,13.6,5.7,13.6,13.9c0,8.2-5.9,13.9-13.6,13.9C466.9,563.7,461,558,461,549.8 M546.9,544.2
		c0-10.1-7.3-17.2-17.6-17.2c-4.4,0-9.8,1.3-13.3,6.4v-5.3h-9.4v43.3h9.5v-24c0-7.4,5.1-11.4,11.2-11.4c6.3,0,10.1,4.1,10.1,11.4
		v24.1h9.5V544.2 M421.4,528.1h-15.3v-13h-9.4v13H388v8.5h8.7v19.6c0,10,3.9,15.9,14.9,15.9c4,0,8.7-1.3,11.7-3.3l-2.7-8
		c-2.8,1.6-5.8,2.4-8.3,2.4c-4.7,0-6.2-2.9-6.2-7.2v-19.4h15.3V528.1z M326.6,510.7v39.1v21.7h-9.4v-5.2c-3,3.9-7.5,6.3-13.7,6.3
		c-12.2,0-21.7-9.5-21.7-22.7c0-13.2,9.5-22.7,21.7-22.7c6.2,0,10.7,2.4,13.7,6.3v-22.6H326.6z M304.7,563.6c7.8,0,13-6,13-13.9
		c0-7.9-5.3-13.9-13-13.9c-8.1,0-13.1,6.3-13.1,13.9C291.5,557.4,296.5,563.6,304.7,563.6 M442.6,528.1h-9.5v43.3h9.5V528.1z
		 M437.8,507.2c-3.8,0-6.6,2.9-6.6,6.7c0,3.7,2.8,6.6,6.6,6.6c3.7,0,6.7-2.9,6.7-6.6C444.5,510.1,441.5,507.2,437.8,507.2
		 M382.8,459c0,13.1,9.1,22.7,23.1,22.7c6.5,0,10.9-1.4,15.6-5.2l-4.5-7.6c-3.5,2.5-7.2,3.9-11.3,3.9c-7.5-0.1-13-5.5-13-13.9
		c0-8.3,5.5-13.8,13-13.9c4.1,0,7.8,1.4,11.3,3.9l4.5-7.6c-4.7-3.7-9.1-5.2-15.6-5.2C391.9,436.2,382.8,445.8,382.8,459 M471,459
		v-21.6h-9.4v5.2c-3-3.9-7.5-6.3-13.7-6.3c-12.1,0-21.6,9.5-21.6,22.7c0,13.2,9.5,22.7,21.6,22.7c6.2,0,10.7-2.4,13.7-6.3v5.3h9.4
		V459z M435.9,459c0-7.6,5-13.9,13.1-13.9c7.8,0,13,6,13,13.9c0,7.9-5.2,13.9-13,13.9C440.9,472.8,435.9,466.6,435.9,459
		 M322.3,436.2c-12.7,0-21.6,9.2-21.6,22.7c0,13.8,9.2,22.7,22.2,22.7c6.5,0,12.5-1.6,17.7-6.1l-4.6-7c-3.6,2.9-8.2,4.5-12.6,4.5
		c-6.1,0-11.6-2.8-12.9-10.6h32.2c0.1-1.2,0.2-2.3,0.2-3.6C342.7,445.5,334.4,436.2,322.3,436.2 M322.1,444.6c6.1,0,9.9,3.8,11,10.5
		h-22.5C311.6,448.9,315.4,444.6,322.1,444.6 M558.3,459v-39h-9.4v22.6c-3-3.9-7.5-6.3-13.7-6.3c-12.1,0-21.6,9.5-21.6,22.7
		c0,13.2,9.5,22.7,21.6,22.7c6.2,0,10.7-2.4,13.7-6.3v5.3h9.4V459z M523.3,459c0-7.6,5-13.9,13.1-13.9c7.8,0,13,6,13,13.9
		c0,7.9-5.2,13.9-13,13.9C528.3,472.8,523.3,466.6,523.3,459 M205.3,459v-21.6h-9.4v5.2c-3-3.9-7.5-6.3-13.7-6.3
		c-12.1,0-21.6,9.5-21.6,22.7c0,13.2,9.5,22.7,21.6,22.7c6.2,0,10.7-2.4,13.7-6.3v5.3h9.4V459z M170.3,459c0-7.6,5-13.9,13.1-13.9
		c7.8,0,13,6,13,13.9c0,7.9-5.3,13.9-13,13.9C175.2,472.8,170.3,466.6,170.3,459"/>
	<rect x="248.7" y="107.5" class="st0" width="142.6" height="256.3"/>
	<path class="st1" d="M257.8,235.6c0-52,24.3-98.3,62.3-128.2c-27.7-21.8-62.7-34.8-100.7-34.8c-90,0-163,73-163,163
		c0,90,73,163,163,163c38,0,73-13,100.7-34.8C282.1,333.9,257.8,287.6,257.8,235.6"/>
	<path class="st2" d="M568.2,336.6v-5.2h2.1v-1.1h-5.4v1.1h2.1v5.2H568.2z M578.7,336.6v-6.3H577l-1.9,4.3l-1.9-4.3h-1.7v6.3h1.2
		v-4.8l1.8,4.1h1.2l1.8-4.1v4.8H578.7z"/>
	<path class="st3" d="M583.8,235.6c0,90-73,163-163,163c-38,0-73-13-100.7-34.8c37.9-29.8,62.3-76.2,62.3-128.2
		c0-52-24.3-98.3-62.3-128.2c27.7-21.8,62.7-34.8,100.7-34.8C510.8,72.6,583.8,145.6,583.8,235.6"/>
</g>
</svg>
